<?xml version="1.0" ?><svg enable-background="new 0 0 52 52" id="Layer_1" version="1.1" viewBox="0 0 52 52" xml:space="preserve" xmlns="http://www.w3.org/2000/svg" xmlns:xlink="http://www.w3.org/1999/xlink"><g><path d="M44.1558762,12.2000122c-0.210022-2.9299927-1.5800171-5.6099854-3.8500366-7.5300293   C38.2658615,2.9500122,35.6658249,2,32.9858322,2c-2.6711407,0-5.2187481,0.9391479-7.2270489,2.5996094   c4.0440674,1.2255249,13.8067608,5.1486206,16.4257793,14.635437   C43.6412277,17.1878662,44.3373337,14.7322998,44.1558762,12.2000122z"/><path d="M24.2120304,6.1645508c-2.0435791,2.5279541-2.8644409,5.8207397-2.2161865,8.9954224L7.8158507,33.9299927   l7.5900273,6.4199829l2.9318848-2.8418579V48h-5.1513672v2h12v-2h-4.8486328V35.5695801l11.998106-11.6295776   c0.2199707,0.0100098,0.4299927,0.0200195,0.6399536,0.0200195c2.8274536,0,5.5247803-1.0410156,7.5745239-2.888916   C38.5068283,10.1345215,25.9450626,6.4876099,24.2120304,6.1645508z"/></g></svg>